<?xml version="1.0" encoding="iso-8859-1"?>
<!-- Generator: Adobe Illustrator 19.0.0, SVG Export Plug-In . SVG Version: 6.00 Build 0)  -->
<svg version="1.1" id="Capa_1" xmlns="http://www.w3.org/2000/svg" xmlns:xlink="http://www.w3.org/1999/xlink" x="0px" y="0px"
	 viewBox="0 0 512 512" style="enable-background:new 0 0 512 512;" xml:space="preserve">
<circle style="fill:#E7E7E8;" cx="256" cy="256" r="256"/>
<path style="fill:#BCBBC0;" d="M512,256c0-0.041-0.002-0.081-0.002-0.121l-150.57-150.57C334.947,77.404,297.507,60,256,60
	c-80.261,0-145.326,65.065-145.326,145.326c0,41.422,17.346,78.778,45.152,105.248l55.824,55.874L256,452l54.226,54.226
	C425.562,481.348,512,378.777,512,256z"/>
<polygon style="fill:#AF1916;" points="183.696,312.524 256,452 328.304,312.524 "/>
<polygon style="fill:#750D09;" points="328.3,312.52 315.01,338.17 256,452 256,312.52 "/>
<circle style="fill:#E6021F;" cx="256" cy="205.33" r="145.33"/>
<path style="fill:#AF1916;" d="M401.33,205.33c0,59.25-35.46,110.22-86.32,132.84c-18.03,8.02-38,12.48-59.01,12.48V60
	C336.26,60,401.33,125.06,401.33,205.33z"/>
<circle style="fill:#FFFFFF;" cx="256" cy="205.33" r="101.67"/>
<path style="fill:#9BFCFF;" d="M357.67,205.33C357.67,261.48,312.15,307,256,307V103.65C312.15,103.65,357.67,149.17,357.67,205.33z
	"/>
<g>
	<path style="fill:#AF1916;" d="M216.515,193.544c-0.159-0.212-0.717-0.609-1.672-1.194c-0.956-0.583-2.149-1.194-3.583-1.831
		c-1.433-0.637-2.999-1.194-4.697-1.671c-1.699-0.478-3.397-0.717-5.095-0.717c-4.671,0-7.005,1.566-7.005,4.697
		c0,0.955,0.251,1.751,0.756,2.388c0.503,0.637,1.246,1.208,2.229,1.712c0.981,0.505,2.215,0.969,3.702,1.393
		c1.485,0.426,3.211,0.903,5.175,1.433c2.707,0.744,5.147,1.552,7.324,2.428c2.176,0.876,4.02,1.964,5.533,3.264
		c1.512,1.301,2.679,2.88,3.503,4.737c0.822,1.858,1.234,4.087,1.234,6.688c0,3.184-0.597,5.878-1.791,8.08
		c-1.194,2.203-2.774,3.98-4.737,5.334c-1.964,1.354-4.219,2.336-6.767,2.945c-2.547,0.61-5.175,0.916-7.881,0.916
		c-2.07,0-4.193-0.159-6.369-0.478c-2.177-0.318-4.299-0.782-6.369-1.393c-2.07-0.609-4.074-1.34-6.01-2.189
		c-1.938-0.848-3.729-1.831-5.374-2.945l5.732-11.384c0.212,0.266,0.902,0.77,2.07,1.513c1.167,0.744,2.613,1.486,4.338,2.229
		c1.724,0.744,3.648,1.407,5.772,1.99c2.122,0.585,4.271,0.876,6.448,0.876c4.617,0,6.926-1.405,6.926-4.219
		c0-1.061-0.346-1.937-1.035-2.627c-0.69-0.689-1.645-1.313-2.866-1.871s-2.667-1.075-4.338-1.553
		c-1.672-0.477-3.491-1.007-5.453-1.592c-2.601-0.796-4.856-1.658-6.767-2.587c-1.911-0.928-3.49-2.003-4.737-3.224
		s-2.177-2.628-2.786-4.22c-0.611-1.592-0.915-3.449-0.915-5.572c0-2.972,0.557-5.599,1.672-7.881
		c1.114-2.281,2.627-4.206,4.538-5.772c1.911-1.564,4.126-2.747,6.647-3.542c2.52-0.796,5.187-1.194,8.001-1.194
		c1.963,0,3.901,0.187,5.811,0.558c1.911,0.372,3.742,0.85,5.493,1.433c1.752,0.585,3.383,1.248,4.896,1.99
		c1.513,0.744,2.906,1.487,4.18,2.23L216.515,193.544z"/>
	<path style="fill:#AF1916;" d="M256.318,233.985c-4.193,0-8.014-0.822-11.464-2.468c-3.45-1.645-6.396-3.808-8.836-6.488
		c-2.442-2.679-4.339-5.744-5.692-9.195c-1.354-3.449-2.03-7.005-2.03-10.667c0-3.714,0.703-7.297,2.11-10.747
		c1.405-3.449,3.37-6.488,5.891-9.115c2.52-2.627,5.505-4.723,8.956-6.289c3.449-1.565,7.217-2.349,11.304-2.349
		c4.192,0,8.013,0.824,11.464,2.468c3.449,1.645,6.395,3.821,8.836,6.528s4.325,5.785,5.652,9.235
		c1.326,3.45,1.99,6.953,1.99,10.508c0,3.715-0.704,7.298-2.109,10.747c-1.407,3.451-3.357,6.488-5.852,9.115
		s-5.467,4.737-8.916,6.329C264.172,233.19,260.405,233.985,256.318,233.985z M241.591,205.326c0,2.177,0.318,4.287,0.955,6.329
		c0.637,2.044,1.579,3.861,2.826,5.453c1.247,1.592,2.799,2.866,4.657,3.821c1.857,0.955,3.98,1.433,6.369,1.433
		c2.494,0,4.669-0.503,6.528-1.512c1.857-1.008,3.396-2.321,4.618-3.941c1.22-1.618,2.136-3.449,2.747-5.493
		c0.609-2.042,0.916-4.126,0.916-6.249c0-2.176-0.319-4.285-0.956-6.329c-0.637-2.042-1.592-3.847-2.866-5.414
		c-1.274-1.564-2.826-2.813-4.657-3.741c-1.831-0.928-3.941-1.393-6.329-1.393c-2.495,0-4.657,0.492-6.488,1.473
		c-1.831,0.982-3.371,2.269-4.617,3.861c-1.248,1.592-2.177,3.411-2.786,5.453C241.895,201.121,241.591,203.204,241.591,205.326z"/>
</g>
<g>
	<path style="fill:#750D09;" d="M282.51,194.9c-1.33-3.45-3.21-6.53-5.65-9.24c-2.44-2.7-5.39-4.88-8.84-6.53
		c-3.45-1.64-7.27-2.46-11.46-2.46c-0.19,0-0.38,0-0.56,0.01v11.62c0.13-0.01,0.26-0.01,0.4-0.01c2.39,0,4.5,0.46,6.33,1.39
		s3.38,2.18,4.65,3.74c1.28,1.57,2.23,3.38,2.87,5.42c0.64,2.04,0.96,4.15,0.96,6.33c0,2.12-0.31,4.2-0.92,6.25
		c-0.61,2.04-1.53,3.87-2.75,5.49c-1.22,1.62-2.76,2.93-4.61,3.94c-1.86,1.01-4.04,1.51-6.53,1.51c-0.14,0-0.27,0-0.4-0.01v11.63
		c0.1,0.01,0.21,0.01,0.32,0.01c4.08,0,7.85-0.8,11.3-2.39c3.45-1.6,6.42-3.7,8.92-6.33c2.49-2.63,4.44-5.67,5.85-9.12
		s2.11-7.03,2.11-10.74C284.5,201.85,283.84,198.35,282.51,194.9z"/>
	<path style="fill:#750D09;" d="M325.976,193.544c-0.159-0.212-0.717-0.609-1.672-1.194c-0.956-0.583-2.149-1.194-3.583-1.831
		c-1.433-0.637-2.999-1.194-4.697-1.671c-1.699-0.478-3.397-0.717-5.095-0.717c-4.671,0-7.005,1.566-7.005,4.697
		c0,0.955,0.251,1.751,0.756,2.388c0.503,0.637,1.246,1.208,2.229,1.712c0.981,0.505,2.215,0.969,3.702,1.393
		c1.485,0.426,3.21,0.903,5.175,1.433c2.707,0.744,5.147,1.552,7.324,2.428c2.176,0.876,4.021,1.964,5.533,3.264
		c1.512,1.301,2.679,2.88,3.502,4.737c0.822,1.858,1.234,4.087,1.234,6.688c0,3.184-0.597,5.878-1.791,8.08
		c-1.194,2.203-2.774,3.98-4.737,5.334c-1.964,1.354-4.219,2.336-6.767,2.945c-2.547,0.61-5.175,0.916-7.881,0.916
		c-2.07,0-4.193-0.159-6.369-0.478c-2.177-0.318-4.299-0.782-6.369-1.393c-2.07-0.609-4.074-1.34-6.01-2.189
		c-1.938-0.848-3.729-1.831-5.374-2.945l5.732-11.384c0.211,0.266,0.902,0.77,2.07,1.513c1.167,0.744,2.613,1.486,4.338,2.229
		c1.724,0.744,3.648,1.407,5.772,1.99c2.122,0.585,4.272,0.876,6.448,0.876c4.617,0,6.926-1.405,6.926-4.219
		c0-1.061-0.346-1.937-1.035-2.627c-0.69-0.689-1.646-1.313-2.866-1.871c-1.221-0.558-2.667-1.075-4.338-1.553
		c-1.672-0.477-3.491-1.007-5.453-1.592c-2.601-0.796-4.857-1.658-6.767-2.587c-1.911-0.928-3.49-2.003-4.737-3.224
		c-1.248-1.221-2.177-2.628-2.786-4.22c-0.611-1.592-0.915-3.449-0.915-5.572c0-2.972,0.557-5.599,1.672-7.881
		c1.114-2.281,2.627-4.206,4.538-5.772c1.911-1.564,4.126-2.747,6.647-3.542c2.52-0.796,5.187-1.194,8-1.194
		c1.963,0,3.901,0.187,5.812,0.558c1.911,0.372,3.742,0.85,5.493,1.433c1.751,0.585,3.383,1.248,4.896,1.99
		c1.513,0.744,2.906,1.487,4.18,2.23L325.976,193.544z"/>
</g>
<g>
</g>
<g>
</g>
<g>
</g>
<g>
</g>
<g>
</g>
<g>
</g>
<g>
</g>
<g>
</g>
<g>
</g>
<g>
</g>
<g>
</g>
<g>
</g>
<g>
</g>
<g>
</g>
<g>
</g>
</svg>
